<?xml version="1.0" standalone="no"?>
<!DOCTYPE svg PUBLIC "-//W3C//DTD SVG 20010904//EN"
 "http://www.w3.org/TR/2001/REC-SVG-20010904/DTD/svg10.dtd">
<svg version="1.0" xmlns="http://www.w3.org/2000/svg"
 width="33.000000pt" height="37.000000pt" viewBox="0 0 33.000000 37.000000"
 preserveAspectRatio="xMidYMid meet">

<g transform="translate(0.000000,37.000000) scale(0.100000,-0.100000)"
fill="#000000" stroke="none">
<path d="M80 349 c-45 -18 -60 -38 -48 -64 8 -17 6 -28 -5 -46 -64 -98 9 -229
128 -229 71 0 127 48 140 122 l7 38 -46 0 c-42 0 -46 2 -46 25 0 14 -4 25 -10
25 -6 0 -10 -28 -10 -65 0 -37 4 -65 10 -65 6 0 10 11 10 25 0 21 5 25 30 25
39 0 39 -19 -1 -64 -75 -86 -209 -34 -209 81 0 39 5 50 39 84 31 31 46 39 75
39 48 0 90 -23 113 -60 9 -16 24 -30 31 -30 11 0 9 9 -7 36 -17 28 -19 40 -10
55 28 54 -106 102 -191 68z m130 -25 c40 -16 51 -43 14 -35 -25 5 -123 5 -148
0 -33 -7 -28 17 6 34 42 21 77 21 128 1z"/>
</g>
</svg>
